<svg id="Layer_1" data-name="Layer 1" xmlns="http://www.w3.org/2000/svg" viewBox="0 0 25 25"><defs><style>.cls-1{fill:transparent;}.cls-2{fill:#fff;}</style></defs><title>1</title><rect class="cls-1" x="-2.28" y="-2.54" width="29.67" height="29.67"/><path class="cls-2" d="M24.79.27l-8.5,0L14.93,2.17h7l.33.05c0,.15,2.3,15.9-9.84,20.32l-.17.06-.18-.05C.84,18.42,1.88,2.32,1.9,2.15l.13,0H8L8.06.24H.13S-2,19.55,12.1,24.83C26.84,19.55,24.79.27,24.79.27Z"/><path class="cls-2" d="M12.2,21.46c10-3.77,8.06-15.71,7.77-18.19h-5.8l-.28.39,4.46,5.52-7.6,8,1.08-8.31L7.69,6.44l.19-3.18H3C2.71,6.86,3.94,18.91,12.2,21.46Z"/></svg>