<svg id="Layer_1" data-name="Layer 1" xmlns="http://www.w3.org/2000/svg" viewBox="0 0 25 25"><defs><style>.cls-1{fill:transparent;}.cls-2{fill:#fff;}</style></defs><title>1</title><rect class="cls-1" x="-0.94" y="-2.6" width="29.67" height="29.67"/><rect class="cls-1" x="-0.97" y="-1.92" width="29.67" height="29.67"/><rect class="cls-1" x="-1.1" y="-1.61" width="29.67" height="29.67"/><path class="cls-2" d="M15.34,10.94s-5.86-2.47-7,3.61,5.73,6.56,8,6.09S23.9,18.17,24,10.41c2.26,7.22-1.09,13-8.5,14.11s-12.81-3.81-12-9.9S8.7,7.06,8.7,7.06,14.56,5.16,15.34,10.94Z"/><path class="cls-2" d="M11,15.11s6.45,1.69,6.74-4.67S10.81,4.58,8.53,5.38,1,9,2,16.88c-3.35-7-.67-13.45,6.89-15.59S22.81,3.36,22.85,9.67s-4.45,8.45-4.45,8.45S12.56,20.9,11,15.11Z"/></svg>