<svg id="Layer_1" data-name="Layer 1" xmlns="http://www.w3.org/2000/svg" viewBox="0 0 25 25"><defs><style>.cls-1{fill:transparent;}.cls-2{fill:#fff;}</style></defs><title>1</title><rect class="cls-1" x="-2.28" y="-2.54" width="29.67" height="29.67"/><path class="cls-2" d="M23.38,7.71l-11.2,0V9H21.5l.21,0c0,.1,1.51,11.15-6.46,14.26l-.12,0-.11,0C7.65,20.44,8.33,9.15,8.34,9h4l.07-1.35H7.18S5.81,21.24,15,24.94C24.72,21.24,23.38,7.71,23.38,7.71Z"/><path class="cls-2" d="M15.11,22.58c6.55-2.65,5.3-11,5.1-12.77H16.4l-.18.28L19.15,14,19,15.66l.35-1.81-2.75-4H9.09C8.88,12.33,9.68,20.79,15.11,22.58Z"/><path class="cls-2" d="M5.72,11.07S4,12.56,3.87,12.56s1-3.22,1-3.22L.7,8.45l4-1.28-1.18-4L7,5.3,8.75.24l1.39,5.12L13.39,2,12,5.2l2.45,1.13-7.61.22-.93,0S5.07,7.58,5.72,11.07Z"/></svg>