<svg id="Layer_1" data-name="Layer 1" xmlns="http://www.w3.org/2000/svg" viewBox="0 0 25 25"><defs><style>.cls-1{fill:transparent;}.cls-2{fill:#fff;}</style></defs><title>1</title><rect class="cls-1" x="-2.28" y="-2.54" width="29.67" height="29.67"/><path class="cls-2" d="M2.35,7.4h11.2V8.73H4.24L4,8.77C4,8.88,2.51,19.93,10.49,23l.11,0,.11,0c7.38-2.9,6.69-14.2,6.68-14.31h-4l-.08-1.36h5.21s1.37,13.56-7.86,17.26C1,20.94,2.35,7.4,2.35,7.4Z"/><path class="cls-2" d="M10.62,22.27c-6.54-2.65-5.3-11-5.1-12.76H9.33l.18.27L6.58,13.66l.13,1.7-.35-1.81L9.11,9.49h7.53C16.85,12,16.05,20.48,10.62,22.27Z"/><path class="cls-2" d="M20,10.77s1.77,1.49,1.85,1.49S20.91,9,20.91,9L25,8.14,21,6.87l1.18-4L18.73,5,17-.06,15.59,5.05,12.34,1.72l1.37,3.17L11.25,6l7.61.21.93,0S20.66,7.27,20,10.77Z"/></svg>