<svg id="Layer_1" data-name="Layer 1" xmlns="http://www.w3.org/2000/svg" viewBox="0 0 25 25"><defs><style>.cls-1{fill:transparent;}.cls-2{fill:#fff;opacity:0.74;}</style></defs><title>1</title><rect class="cls-1" x="-0.94" y="-2.6" width="29.67" height="29.67"/><rect class="cls-1" x="-0.97" y="-1.92" width="29.67" height="29.67"/><rect class="cls-1" x="-1.1" y="-1.61" width="29.67" height="29.67"/><path class="cls-2" d="M18.62,13.75c5.52.73,5.07-1.36,4.76-2.13s-3.27-.48-5.06-.3c-.47,0-.82-.49-.95-1A10.51,10.51,0,0,0,17,9.28c-.16-.39.56-.85.87-1.13C19.16,7,22.15,3.9,19.54,2.74s-3.67,1.64-4,3.83c-.09.61-1.3.16-1.86,0s1-3.15-.78-3.09c-1.67-.35-.6,3.07-1,3.17-.59.14-1.59.38-1.95.49-.53.15-.54-.6-.66-1.15C8.89,4.05,7.83.52,5.8,2.56s.27,3.83,1.67,4.73a1,1,0,0,1,.26,1.44,2.88,2.88,0,0,0-.64,1.68c-.07.53.27,1.11-1,1.09a19.35,19.35,0,0,1-2.75-.3,1.51,1.51,0,0,0-1.76,1.26A3.06,3.06,0,0,0,1.88,15a1.08,1.08,0,0,0,1.88.32,2.58,2.58,0,0,1,1-.39C9.14,13.65,8.42,16,7.22,16.44s-6.12,4.17-1.49,4c2.44-.1,1.49-2.06,2.79-3.34,2.38-2.33,2.22.12,2.22.12s-.83,3.29.65,3.22.24-2,.72-2.7,1-.4,1-.4c1.14,1.19-.75,7.53,2.3,6.57,1.49-.47,2-2.39,1.35-4.06-.93-2.6-1-3.83,1.64-1,.73.79,2,2.15,2.77,1.37,1.23-1.23.26-2-2-3C15.94,15.68,16.25,13.44,18.62,13.75Zm-3.74,1.64c-1.26.76-3.58.52-4.25-.17-.86-.89-2.21-2.86-.82-5,1.89-2.9,4.9-1.68,5.86.35C16.2,11.69,16,14.71,14.88,15.39Z"/></svg>