<svg id="Layer_1" data-name="Layer 1" xmlns="http://www.w3.org/2000/svg" viewBox="0 0 29.55 28.81"><defs><style>.cls-1,.cls-2,.cls-3{fill:none;stroke:#fff;}.cls-1,.cls-2{stroke-linecap:round;stroke-width:1.8px;}.cls-1{stroke-linejoin:round;}.cls-2,.cls-3{stroke-miterlimit:10;}.cls-3{stroke-width:1.5px;}</style></defs><title>mork-styles</title><path class="cls-1" d="M24.43,11a10.13,10.13,0,0,1-9.28,14.19C9.56,25.15,4.85,19.8,5,15c.06-1.79,1.15-4.61,5.17-4.71,2.56-.06,5.11,2.47,5.6,6a4.65,4.65,0,0,0,3.63,3.87A7.73,7.73,0,0,0,24,19.84"/><path class="cls-2" d="M10,5.2a6.6,6.6,0,0,1,5.41-2.42A6.44,6.44,0,0,1,20.7,5.2"/><path class="cls-3" d="M12.31,11.26S14.5,7.75,17,8.64c2.76,1,1.8,2.87,2.89,4.32,1.21,1.62,3.35,1.66,5.14.26"/><path class="cls-3" d="M5.63,18.39S8,14.91,10.35,15.77c3.27,1.2,1.81,2.87,2.9,4.33,1.21,1.62,3.34,1.65,5.14.25"/></svg>