<svg id="Layer_1" data-name="Layer 1" xmlns="http://www.w3.org/2000/svg" viewBox="0 0 28.35 28.35"><defs><style>.cls-1,.cls-2{fill:none;stroke:#fff;stroke-linecap:round;stroke-miterlimit:10;}.cls-1{stroke-width:1.8px;}.cls-2{stroke-width:1.6px;}.cls-3{fill:#fff;}</style></defs><title>mork-styles</title><path class="cls-1" d="M3.65,14.83s-.76,8.87,7.13,11.26"/><path class="cls-2" d="M22.75,14.76s.76,8.87-7.14,11.26"/><polygon class="cls-3" points="9.52 21.17 13.14 24.75 16.54 21.27 9.52 21.17"/><path class="cls-3" d="M4.12,11.21l8.8-8.94,9.19,8.87-.76.76a11.15,11.15,0,0,0-8.57,0c-.66,0-3.41-2.72-7.64,0A4.37,4.37,0,0,1,4.12,11.21Z"/><path class="cls-3" d="M13.66,15.08S9,11.47,7.76,11.91s-2.2.42-1.51,1.48,1.77.26,2.89.6,1.44,1.43,2.2,1.65S13.73,15.41,13.66,15.08Z"/><path class="cls-3" d="M12.2,13s5.82-2,5.79-.72-2.73,1.85-2.9,1.85A6,6,0,0,1,12.2,13Z"/><path class="cls-3" d="M17.31,14.05a.59.59,0,0,0,.44.78c.65.2,1.26,0,2.56-1.88a3.7,3.7,0,0,0-1.22,0A7.35,7.35,0,0,0,17.31,14.05Z"/><path class="cls-3" d="M7.69,15a24.19,24.19,0,0,0,3.57,3.14c1.06.53,2.71-.75,2.71-.75s2-1.06,2.56-.69,1.58-1.4.17-1.38a5.3,5.3,0,0,0-2.59.42c-.61.25-1.89,1.68-3.56.5C8.73,15,8.79,14.51,7.69,15Z"/><path class="cls-3" d="M14.71,18.4S14,20.22,13,20.15s-.6-.84-.6-.84S14.06,18,14.71,18.4Z"/></svg>