<svg id="Layer_1" data-name="Layer 1" xmlns="http://www.w3.org/2000/svg" viewBox="0 0 28.35 28.35"><defs><style>.cls-1{fill:none;stroke:#fff;stroke-linecap:round;stroke-miterlimit:10;stroke-width:1.2px;}.cls-2{fill:#fff;}</style></defs><title>mork-styles</title><path class="cls-1" d="M11.83,4A6.86,6.86,0,1,1,4.64,8"/><path class="cls-1" d="M18.2,9.23a8.76,8.76,0,1,1-12.26,8,7.88,7.88,0,0,1,0-1"/><rect class="cls-2" x="5.75" y="3.02" width="4.01" height="4.01" transform="translate(-1.49 5) rotate(-32.8)"/><path class="cls-2" d="M4.56,9.52l12.62.11.63,2.19s-3.45-.66-4.45.25a4.24,4.24,0,0,1-2.43,1.29,2.71,2.71,0,0,1-1.72-.68c-1-.65-1.6-.94-2.22-.82s-2,.3-2,1.44S3.56,10,4.56,9.52Z"/><path class="cls-2" d="M16.61,14s-2.47-.47-3.53.14-.86.2-1.9,2S6.06,16,6.52,15.63,6,16,6,16s4.48,2.93,6.83,1.39A16.73,16.73,0,0,0,16.61,14Z"/><path class="cls-2" d="M6.51,19.05s.81,2.17.76,2.17.38-.43.38-.43a4.32,4.32,0,0,1,2.8.7c1.61,1,1.39,3.34,1,3.43s3.61,1.76,6.46-.24c-3-1-3.74-3-5.59-4.39S6.51,19.05,6.51,19.05Z"/><path class="cls-2" d="M20.79,11.28s.87.39-.33,3.39-2.69,1.17-4,2.44-1.5,2.36-.3,3.37,2.19,1.93,5.75,1.5c1.2-1.63,1-1.5-1.82-2.74s1.56-2.64,1.56-2.64A2.33,2.33,0,0,0,23,15.17"/></svg>